# xmcd
#
# Track frame offsets:
#	150
#	18311
#	36521
#	54138
#	71708
#	85204
#	100661
#	116132
#	129877
#	149822
#	166580
#	181350
#
# Disc length: 2677 seconds
#
# Revision: 2
# Processed by: cddbd v1.5.1PL2 Copyright (c) Steve Scherf et al.
# Submitted via: audiograbber 1.83.01
#
DISCID=9f0a730c
DTITLE=Freddy Quinn - Du hast mein Wort
DYEAR=1900
DGENRE=
TTITLE0=Du hast mein Wort
TTITLE1=Du bist fuer das Leben geboren
TTITLE2=Der Mann im Rampenlicht
TTITLE3=Wir reisen zum Horizont
TTITLE4=Tequila per Faver
TTITLE5=Instanbul ist weit
TTITLE6=Du hast Tränen in den Augen
TTITLE7=Wenn die letzten Freunde gehen
TTITLE8=Bye Bye Lady Blue
TTITLE9=Allein unter Fremden
TTITLE10=Mein Zuhause ist der Bahnhof
TTITLE11=Wir leben nur einmal
EXTD=Schallplatte
EXTT0=
EXTT1=
EXTT2=
EXTT3=
EXTT4=
EXTT5=
EXTT6=
EXTT7=
EXTT8=
EXTT9=
EXTT10=
EXTT11=
PLAYORDER=
